<svg width="50px" height="50px" viewBox="0 0 50 50" fill="none" xmlns="http://www.w3.org/2000/svg"><path fill-rule="evenodd" clip-rule="evenodd" d="M.553 15.644s-.565-4.86-.553-5.44c.042-1.901.643-3.014 1.91-3.4.297-.893.833-2.422 1.226-3.344C3.864 1.75 5.173 0 9.383 0h4.953c3.468 0 5.181 1.041 6.315 3.84.378.937.839 2.243 1.142 3.124 1.288.532 1.895 1.713 1.895 3.352 0 .595-.297 5.159-.297 5.159l-22.838.17zm3.99-1.936c3.102 0 3.123-4.852-.054-4.852s-3.344 4.852.054 4.852zm14.21-8.925c-.869-2.138-1.633-2.757-4.418-2.757H9.371c-3.335 0-3.832 1.19-4.35 2.406a47.408 47.408 0 00-.832 2.22c3.361 0 12.303-.033 15.263 0a49.651 49.651 0 00-.699-1.872v.003zm.705 4.683c-2.38 0-2.508 3.638.042 3.638 2.326-.003 2.34-3.641-.042-3.641v.003zM6.149 18.467c0 2.044-5.587 2.044-5.587 0V16.93l5.587-.19v1.728zm17.254 0c0 2.044-5.355 2.044-5.355 0v-1.666l5.355.116v1.55z" fill="#AAB9C6"/></svg>