<svg width="96" height="100" fill="none" xmlns="http://www.w3.org/2000/svg"><path fill-rule="evenodd" clip-rule="evenodd" d="M77.655 46.681h-2.71s.03-9.596-4.641-14.313c-4.67-4.719-12.845-5.321-12.845-5.321l.272-2.896s9.857-1.051 13.06-4.287c4.41-4.456 3.969-12.67 3.969-12.67l2.76-.232s.489 9.178 4.295 12.985c3.74 3.738 13.589 4.173 13.589 4.173l.132 3.057s-8.32.535-13.095 4.605c-3.878 3.307-4.786 14.899-4.786 14.899zm-11.018-1.027c.263.892.654 2.217 1.125 3.824L1.367 69.005a444.365 444.365 0 01-.826-2.603c-1.36-4.36-.156-7.733 3.623-9.079C7.94 55.976 51.318 42.81 56.389 41.305c5.07-1.506 8.631-1.123 10.248 4.35zM42.725 23.395h-1.597s.017-5.652-2.736-8.43c-2.756-2.78-7.577-3.134-7.577-3.134l.16-1.706s5.814-.62 7.703-2.525C41.28 4.975 41.017.136 41.017.136L42.645 0s.35 5.343 2.597 7.585c2.206 2.202 7.951 2.521 7.951 2.521l.078 1.8s-4.907.317-7.723 2.714c-2.287 1.946-2.823 8.775-2.823 8.775zm-5.184 4.67l.079 1.8s-4.909.316-7.724 2.713c-2.288 1.947-2.823 8.775-2.823 8.775h-1.599s.02-5.652-2.736-8.43c-2.755-2.781-7.577-3.136-7.577-3.136l.16-1.705s5.816-.62 7.703-2.525c2.603-2.625 2.34-7.464 2.34-7.464l1.628-.136s.257 5.436 2.504 7.678c2.205 2.202 8.045 2.43 8.045 2.43zm38.084 48.21c1.022 3.417.609 7.385-5.96 8.937-6.568 1.553-44.808 12.988-49.892 14.18-5.087 1.19-8.606 1.056-10.14-4.323-.614-2.156-2.472-7.999-4.37-13.923l65.899-20.072a4837.065 4837.065 0 004.463 15.202z" fill="url(#paint0_linear)"/><defs><linearGradient id="paint0_linear" x1="0" y1="42.188" x2="80.478" y2="25.845" gradientUnits="userSpaceOnUse"><stop stop-color="#0661B2"/><stop offset="1" stop-color="#CC0B19"/></linearGradient></defs></svg>