<svg width="57" height="89" fill="none" xmlns="http://www.w3.org/2000/svg"><path fill-rule="evenodd" clip-rule="evenodd" d="M51.846 74.27s-14.204 6.699-18.431 13.904l-26.61.083L.861 53.175l.325-.328C2.671 48.406 15.309 10.56 16.911 3.405c3.022.649 4.862 2.982 5.984 5.615 1.167-4.15 2.049-7.415 2.408-9.02 7.897 1.695 9.231 8.903 7.243 15.774-.738 2.549-3.435 11.002-3.435 11.002l-4.44 3.716 1.539 2.526 8.174-3.731 15.177 5.089s2.757 5.85 4.851 10.091c1.257 2.546.267 4.764-1.49 6.143 1.206.308 2.504.807 3.901 1.537-4.899 8.872-4.977 22.123-4.977 22.123zm-6.779-24.283c-.821-1.697-2.425-4.792-2.425-4.792l-6.785-1.774-7.988 5.282.289 10.255 10.338 2.672s1.786-7.81 7.423-10.507a3.6 3.6 0 01-.852-1.136zM.351 11.506c4.614 0 7.267 2.73 8.929 5.403C6.634 24.153 0 44.758 0 44.758s.637-26.011.351-33.252z" fill="url(#paint0_linear)"/><defs><linearGradient id="paint0_linear" x1="0" y1="37.233" x2="48.924" y2="30.538" gradientUnits="userSpaceOnUse"><stop stop-color="#0661B2"/><stop offset="1" stop-color="#CC0B19"/></linearGradient></defs></svg>