<svg width="196" height="140" fill="none" xmlns="http://www.w3.org/2000/svg"><path d="M41.282 138.91h-4.897v-9.247h4.897v1.599H38.18v2.049h2.887v1.58H38.18v2.4h3.102v1.619zM49.925 138.91H48.11v-7.609h-2.302v-1.638h6.419v1.638h-2.302v7.609zM63.131 136.023c0 1.931-1.15 2.887-3.511 2.887h-2.478v-9.247h1.795v3.531h.722c1.112 0 1.97.253 2.556.741.624.488.916 1.19.916 2.088zm-4.194 1.268h.624c.605 0 1.054-.098 1.346-.312.274-.235.41-.547.41-.976 0-.429-.136-.722-.43-.917-.292-.214-.76-.292-1.462-.292h-.469v2.497h-.02zM80.222 138.91l-.605-2.205h-3.121l-.625 2.205h-1.95l3.023-9.286h2.205l3.024 9.286h-1.951zm-1.034-3.843c-.585-2.01-.898-3.122-.976-3.395-.058-.254-.117-.449-.136-.624a121.67 121.67 0 01-1.112 4.019h2.224zM86.835 129.663h2.654c1.229 0 2.087.195 2.633.565.566.371.82.976.82 1.776 0 .565-.117 1.014-.351 1.365-.254.352-.566.566-.956.644v.059c.546.117.936.37 1.15.722.254.351.352.819.352 1.424 0 .839-.273 1.502-.82 1.99-.565.448-1.326.702-2.301.702h-3.18v-9.247zm1.795 3.667h1.054c.487 0 .839-.078 1.053-.253.234-.156.332-.429.332-.82 0-.351-.098-.604-.351-.741-.254-.156-.624-.254-1.132-.254h-.956v2.068zm0 1.542v2.419h1.17c.489 0 .879-.098 1.093-.312.254-.215.371-.547.371-.956 0-.761-.507-1.151-1.522-1.151H88.63zM101.721 138.91h-1.795v-7.609h-2.322v-1.638h6.439v1.638h-2.322v7.609zM116.666 134.286c0 1.522-.352 2.712-1.054 3.512-.702.819-1.697 1.249-3.004 1.249s-2.322-.41-3.024-1.249c-.703-.8-1.054-2.009-1.054-3.531 0-1.522.351-2.712 1.054-3.512.702-.819 1.717-1.229 3.024-1.229 1.326 0 2.321.39 3.024 1.229.682.82 1.034 1.971 1.034 3.531zm-6.224 0c0 1.034.195 1.795.546 2.322.371.546.917.78 1.639.78 1.424 0 2.146-1.034 2.146-3.102 0-2.087-.702-3.121-2.146-3.121-.722 0-1.268.254-1.619.78-.371.508-.566 1.307-.566 2.341zM128.292 137.271h2.634v-7.608h1.814v9.247h-10.71v-9.247h1.795v7.608h2.633v-7.608h1.834v7.608zM145.422 138.91h-2.068l-3.083-4.682v4.682h-1.794v-9.247h1.794v4.467l3.063-4.467h1.932l-3.122 4.428 3.278 4.819zM157.81 134.286c0 1.522-.352 2.712-1.054 3.512-.702.819-1.697 1.249-3.004 1.249s-2.322-.41-3.024-1.249c-.703-.8-1.054-2.009-1.054-3.531 0-1.522.351-2.712 1.054-3.512.702-.819 1.717-1.229 3.024-1.229 1.326 0 2.321.39 3.024 1.229.682.82 1.034 1.971 1.034 3.531zm-6.224 0c0 1.034.195 1.795.546 2.322.371.546.917.78 1.639.78 1.424 0 2.146-1.034 2.146-3.102 0-2.087-.702-3.121-2.146-3.121-.722 0-1.268.254-1.619.78-.39.508-.566 1.307-.566 2.341zM169.906 138.91h-1.795v-7.608h-2.088l-.097.838c-.234 2.146-.449 3.668-.644 4.527-.156.878-.449 1.482-.8 1.833-.351.352-.819.508-1.424.508-.332 0-.624-.039-.878-.137v-1.6c.234.078.429.117.644.117.215 0 .371-.097.488-.312.117-.214.234-.585.331-1.131.098-.566.254-1.463.43-2.732.156-1.268.331-2.458.448-3.57h5.385v9.267zM180.675 134.579c0 .995-.8 1.795-1.815 1.795a1.79 1.79 0 01-1.795-1.795c0-1.014.8-1.814 1.795-1.814 1.015-.02 1.815.8 1.815 1.814zM28.815 131.165c-.683 0-1.229.293-1.6.819-.37.566-.565 1.346-.565 2.322 0 2.068.722 3.102 2.146 3.102.585 0 1.326-.156 2.165-.488v1.658c-.702.313-1.482.469-2.36.469-1.249 0-2.166-.41-2.83-1.229-.663-.82-.994-1.99-.994-3.512 0-.976.156-1.795.468-2.517.332-.722.8-1.287 1.405-1.678a3.992 3.992 0 012.126-.585c.82 0 1.659.234 2.478.663l-.585 1.6a10.29 10.29 0 00-.956-.429 2.004 2.004 0 00-.898-.195zM18.007 134.579c0 .995-.82 1.795-1.814 1.795-.995 0-1.815-.8-1.815-1.795a1.81 1.81 0 011.815-1.814c.995 0 1.814.8 1.814 1.814zM26.864 113.743c-1.97 1.834-4.8 2.907-8.545 3.18v2.712h-6.848v-2.731c-3.765-.351-6.613-1.424-8.564-3.239C.956 111.851 0 109.354 0 106.193c0-3.16.975-5.618 2.907-7.433 1.95-1.794 4.8-2.868 8.564-3.219v-2.516h6.868v2.516c3.765.293 6.613 1.366 8.564 3.18 1.951 1.834 2.907 4.312 2.907 7.492 0 3.18-.995 5.677-2.946 7.53zm-18.573-4.604c.703.683 1.756 1.151 3.18 1.405v-8.682c-1.502.234-2.575.683-3.238 1.366-.644.663-.976 1.678-.976 2.985 0 1.248.352 2.243 1.034 2.926zm13.267.039c.663-.702.975-1.697.975-3.024 0-1.287-.332-2.282-.995-2.965-.663-.702-1.736-1.151-3.2-1.385v8.759c1.483-.195 2.556-.682 3.22-1.385zM78.388 95.327c1.522.741 2.712 1.795 3.531 3.18.82 1.365 1.249 2.985 1.249 4.819s-.41 3.453-1.249 4.838c-.82 1.385-2.01 2.439-3.531 3.18-1.522.722-3.336 1.092-5.404 1.092h-3.2v5.931h-7.53V94.234h10.73c2.068 0 3.882.352 5.404 1.093zm-3.57 10.086c.507-.488.76-1.17.76-2.087 0-.898-.253-1.6-.76-2.088s-1.268-.741-2.302-.741h-2.732v5.658h2.732c1.034.019 1.775-.235 2.302-.742zM106.891 118.387l-.058-11.003-4.839 8.837h-3.297l-4.838-8.467v10.633h-6.848V94.234h6.185l7.257 12.857 7.062-12.857h6.165l.078 24.153h-6.867zM141.54 94.234l-8.955 18.183c-1.054 2.146-2.361 3.804-3.882 4.916-1.542 1.132-3.239 1.698-5.092 1.698-1.425 0-2.868-.313-4.312-.976l1.736-5.853c.937.273 1.698.41 2.302.41.566 0 1.034-.098 1.425-.312.39-.215.761-.566 1.112-1.054l-8.526-17.031h7.921l4.428 10.164 4.585-10.164h7.258v.02zM164.502 94.234v24.153h-7.374v-17.832h-5.092l-.078 2.79c-.078 3.453-.332 6.282-.761 8.506-.41 2.205-1.151 3.922-2.205 5.17-1.073 1.229-2.575 1.834-4.565 1.834-.995 0-2.048-.137-3.18-.449l.39-6.516c.273.059.566.098.82.098.78 0 1.385-.351 1.794-1.034.41-.703.703-1.619.839-2.771.137-1.151.254-2.653.313-4.526l.292-9.403h18.807v-.02zM185.767 114.192H177.3l-1.483 4.195h-7.648l9.755-24.153h7.375l9.735 24.153h-7.765l-1.502-4.195zm-2.068-5.872l-2.166-6.087-2.165 6.087h4.331zM38.94 117.333a11.635 11.635 0 01-4.506-4.507c-1.073-1.931-1.62-4.097-1.62-6.516 0-2.419.547-4.584 1.62-6.516a11.635 11.635 0 014.507-4.507c1.892-1.073 4.058-1.619 6.457-1.619 2.4 0 4.546.546 6.477 1.62 1.893 1.092 3.415 2.575 4.488 4.506 1.073 1.932 1.619 4.097 1.619 6.516 0 2.419-.546 4.585-1.62 6.516-1.072 1.932-2.575 3.414-4.487 4.507-1.931 1.073-4.077 1.619-6.477 1.619-2.4 0-4.545-.546-6.457-1.619zm8.995-5.736c.74-.488 1.346-1.19 1.794-2.107.43-.917.664-1.97.664-3.18 0-1.209-.234-2.282-.664-3.18-.448-.917-1.053-1.619-1.794-2.107a4.64 4.64 0 00-2.537-.741c-.917 0-1.775.253-2.516.741-.761.488-1.366 1.19-1.795 2.107-.449.917-.683 1.971-.683 3.18 0 1.21.234 2.283.683 3.18.429.917 1.034 1.619 1.795 2.107.741.488 1.6.742 2.516.742.917 0 1.776-.235 2.537-.742z" fill="#2A2A2A"/><path d="M145.11 29.327c-2.146-4-5.228-7.433-8.857-10.36-3.356-2.711-7.257-4.993-11.452-6.808a63.19 63.19 0 00-12.818-3.94c-.273-.06-.546-.098-.799-.137.76 3.258 1.658 7.413 2.653 12.622 1.58.937 2.985 2.03 4.116 3.239 1.503 1.58 2.576 3.394 3.122 5.384.546 2.088.409 4.156-.332 6.146-.683 1.853-1.892 3.59-3.59 5.17a672.105 672.105 0 011.854 13.617c.234-.098.449-.234.683-.351a10.5 10.5 0 001.034-.546c.351-.196.682-.39 1.014-.586.312-.195.644-.39.956-.605.02 0 .039-.019.078-.038.02 0 .039-.02.078-.02.02 0 .059-.02.078-.02h.098a.33.33 0 01.136.02c.059 0 .098.02.156.039.039.02.098.039.137.059.039.038.078.058.117.097.058.059.117.117.137.195a.444.444 0 01.058.215.677.677 0 01-.039.195c-.039.058-.078.117-.137.156-.331.215-.663.41-.995.624-.351.215-.682.39-1.033.605-.352.195-.703.39-1.073.585-.352.195-.722.371-1.093.547-.02.02-.039.02-.078.039-.02 0-.039 0-.059.02h-.136c.741 5.969 1.346 11.529 1.834 16.328a48.168 48.168 0 004.038-1.58c7.375-3.2 13.169-7.59 17.129-12.583 3.668-4.605 5.677-9.657 6.029-14.71.351-4.624-.683-9.228-3.044-13.618zM87.07.571s-2.985 7.062-7.316 33.204c-4.35 26.123-6.087 49.242-6.087 49.242s4.39 1.073 10.34 1.736c5.97.663 11.9.663 11.9.663.02-1.229.02-2.438.02-3.687 0-.117.04-.234.078-.351a.704.704 0 01.196-.293c.078-.078.195-.136.292-.214.098-.04.234-.059.351-.059.117 0 .235.02.352.059a.946.946 0 01.273.214c.078.078.136.195.195.293a.764.764 0 01.078.351c0 1.249.02 2.458.02 3.687 0 0 4.038.117 11.432-.741 7.394-.839 10.808-1.658 10.808-1.658s-1.854-23.002-6.087-49.242C109.701 7.515 106.618.571 106.618.571 102.814-.19 90.875-.19 87.07.57zm9.345 1.677c0-.02.02-.039.04-.078.019-.02.038-.058.077-.078a.314.314 0 01.137-.078c.039-.02.097-.02.156-.02a.43.43 0 01.156.02c.039.02.098.04.117.078.039.02.078.059.097.078.02.04.02.059.02.078 0 .508 0 1.015.02 1.522 0 .02-.02.04-.04.059-.019 0-.038.02-.077.02H96.513c-.04 0-.078-.02-.098-.02-.02-.02-.02-.04-.02-.059.02-.507.02-1.014.02-1.522zm-.02 3.122c0-.02.02-.059.04-.078.02-.04.039-.078.078-.098.039-.039.097-.058.136-.078.059-.02.117-.039.195-.039.059 0 .117.02.156.04.059.019.098.038.137.077.039.02.058.059.078.098.02.02.039.058.039.078 0 .566 0 1.112.02 1.678 0 .039-.02.058-.04.058-.019.02-.058.02-.097.04H96.513c-.04-.02-.078-.02-.098-.04-.02 0-.02-.02-.02-.058V5.37zm-.019 3.434c0-.02.02-.059.04-.098l.097-.098a.314.314 0 01.136-.078.42.42 0 01.195-.039c.059 0 .117.02.195.04.04.019.098.038.137.077.039.04.058.078.078.098.02.039.04.078.04.098v1.853c.019.02 0 .058-.02.058a.149.149 0 01-.098.04h-.683c-.039 0-.058-.02-.097-.04-.02 0-.02-.039-.02-.058V8.804zm-.02 3.804c0-.02.02-.059.04-.098.02-.039.058-.078.097-.117a.35.35 0 01.137-.097c.058-.02.117-.02.214-.02.059 0 .117 0 .195.02.059.02.098.058.156.097.04.04.059.078.079.117.02.04.039.078.039.098 0 .683 0 1.365.02 2.068 0 .02-.02.058-.04.078-.02 0-.059.02-.098.02-.038.019-.097.019-.156.019H96.63c-.059 0-.117 0-.156-.02-.04 0-.059-.02-.098-.02-.02-.019-.02-.058-.02-.077v-2.068zm-.019 4.233c0-.039.02-.078.04-.117a.349.349 0 01.097-.136c.039-.04.097-.059.156-.098a.6.6 0 01.214-.039 1 1 0 01.215.04c.059.038.097.058.136.097a.226.226 0 01.098.136c.04.04.04.078.04.117 0 .761.019 1.522.019 2.302 0 .04-.02.059-.04.078a.149.149 0 01-.097.04c-.039.019-.097.019-.156.019h-.449c-.058 0-.097 0-.156-.02-.039 0-.058-.019-.097-.039-.02-.02-.02-.039-.02-.078v-2.302zm-.02 4.741c0-.039.02-.098.04-.137a.35.35 0 01.097-.136c.04-.04.098-.078.156-.117a.728.728 0 01.234-.04c.059 0 .137.02.215.04.059.039.117.078.156.117.058.039.078.078.117.136.02.04.02.098.02.137.02.839.02 1.717.02 2.575 0 .04 0 .059-.04.098a.15.15 0 01-.097.039c-.04.02-.098.02-.196.02-.058.019-.117.019-.214.019-.098 0-.156 0-.234-.02-.059 0-.117 0-.195-.02a.149.149 0 01-.098-.038c-.02-.04-.039-.059-.039-.098.04-.858.059-1.736.059-2.575zm-.038 5.307c0-.04.02-.078.039-.137.039-.058.078-.098.117-.156a.364.364 0 01.195-.098.416.416 0 01.234-.058c.097 0 .136.02.234.058.058.02.117.059.156.098.059.058.098.098.117.156.02.059.04.098.04.137 0 .995 0 1.97.019 2.926 0 .058-.02.078-.04.117-.038.02-.058.059-.117.059-.038.019-.097.019-.195.039h-.487c-.059-.02-.117-.02-.195-.04-.04 0-.078-.038-.098-.058-.039-.039-.039-.058-.039-.117.02-.956.02-1.931.02-2.926zm-.04 6.047c0-.039.02-.097.04-.156a.73.73 0 01.117-.195.563.563 0 01.195-.117c.097-.039.136-.039.253-.039.078 0 .156 0 .234.04.078.038.137.077.215.116.04.059.078.117.098.195a.312.312 0 01.058.156v3.356c0 .058 0 .098-.039.137-.02.039-.058.058-.117.078a.49.49 0 01-.195.039c-.078 0-.156.02-.254.02-.097 0-.195-.02-.253-.02-.078 0-.137-.02-.215-.04-.058-.019-.097-.038-.117-.077a.282.282 0 01-.039-.137c0-1.112.02-2.224.02-3.356zm-.038 6.946c0-.059.02-.137.039-.215.039-.058.078-.117.117-.195.058-.059.117-.117.214-.137a.567.567 0 01.273-.058c.078 0 .156.02.254.058.078.02.136.078.215.137a.405.405 0 01.117.195c.039.059.039.137.039.215.02 1.287.02 2.555.02 3.843 0 .058 0 .117-.04.156-.02.059-.058.078-.117.117a.6.6 0 01-.214.04c-.079.019-.196.019-.274.019-.097 0-.195 0-.273-.02a.699.699 0 01-.214-.039c-.059-.039-.098-.058-.137-.117a.366.366 0 01-.039-.156c0-1.268.02-2.556.02-3.843zm-.04 7.998c0-.058.02-.136.04-.234.039-.058.078-.136.136-.214a.61.61 0 01.215-.156.713.713 0 01.566 0 .866.866 0 01.214.156.505.505 0 01.137.214c.039.078.058.156.058.234 0 1.503 0 3.005.02 4.507 0 .078-.02.137-.059.215a.332.332 0 01-.117.117.658.658 0 01-.234.078c-.098.02-.195.02-.293.02-.097 0-.214 0-.292-.02-.078-.02-.156-.04-.234-.078-.059-.04-.117-.078-.137-.117a.35.35 0 01-.058-.215c.019-1.502.019-2.985.038-4.507zm-.058 9.404c0-.078.02-.195.059-.273.019-.078.078-.156.136-.234a.78.78 0 01.234-.195.884.884 0 01.312-.059c.098 0 .215.02.293.059a.69.69 0 01.234.195.702.702 0 01.156.234c.02.078.04.195.04.273.019 1.756.019 3.531.038 5.287 0 .098-.02.195-.058.254a.7.7 0 01-.137.195c-.078.039-.156.078-.254.097-.097.02-.214.04-.312.04-.117 0-.234-.02-.312-.04a.765.765 0 01-.253-.097.407.407 0 01-.156-.196c-.04-.058-.04-.136-.04-.253 0-1.756.02-3.531.02-5.287zm-.058 11.1c0-.097.019-.214.058-.311.039-.078.078-.196.156-.254a.97.97 0 01.254-.215.911.911 0 01.643 0c.098.059.196.117.274.215a.802.802 0 01.156.254.884.884 0 01.058.312c0 2.107.02 4.233.04 6.36 0 .097-.02.214-.06.292a.499.499 0 01-.194.254c-.078.058-.157.117-.274.136a1.02 1.02 0 01-.683 0 .721.721 0 01-.272-.136.627.627 0 01-.156-.254.711.711 0 01-.06-.292l.06-6.36zM58.761 18.969c-3.628 2.907-6.691 6.36-8.857 10.36-2.38 4.389-3.414 8.993-3.063 13.597.956 13.325 14.164 24.465 25.81 28.874.918-8.877 2.05-19.431 3.844-31.176-5.209-5.95-2.692-15.607 3.395-19.919.546-2.77.839-4.292 1.326-6.516-.156.04-.312.078-.448.137-.02 0-.04 0-.059.02h-.058c-.02 0-.04 0-.059.019h-.058c-.02 0-.059 0-.098-.02-.02 0-.058 0-.078-.02-.02 0-.058 0-.078-.019-.02-.02-.039-.02-.059-.039a.148.148 0 01-.038-.078c0-.02 0-.059.019-.078a.152.152 0 01.078-.078.318.318 0 01.117-.059c.273-.097.507-.195.78-.273.059-.02.098-.02.157-.039.41-1.99.877-4.019 1.248-5.58-4.311.898-8.525 2.44-12.35 4.098-4.194 1.794-8.096 4.077-11.47 6.789zm15.51-2.38c.02-.02.059-.059.098-.078.253-.117.468-.254.722-.371.253-.098.487-.234.721-.351.254-.098.488-.234.742-.332.253-.097.487-.234.741-.332.04 0 .059-.019.078-.019.02 0 .04-.02.078-.02h.059c.039-.019.058-.019.078-.019.02 0 .058 0 .078.02h.078c.02.019.058.019.078.019.02.02.039.02.058.039.02.02.04.059.059.078v.078c-.02.04-.04.059-.059.078a.405.405 0 01-.117.078c-.253.098-.487.215-.721.332a8.138 8.138 0 00-.722.331c-.254.098-.469.235-.722.332-.234.117-.449.254-.703.37-.019 0-.038.02-.058.02-.04.02-.059.02-.098.04h-.078c-.039.019-.058.019-.097.019-.02 0-.04 0-.059-.02h-.078c-.02 0-.039-.02-.058-.02-.02 0-.04-.019-.059-.019-.039-.02-.058-.058-.078-.078-.02-.02-.02-.058-.02-.078.02-.039.02-.058.06-.097zm-13.851 18.67a.276.276 0 01-.04-.117c.02-.254.04-.488.04-.741.02-.254.058-.488.078-.742.039-.253.058-.488.117-.741.039-.254.078-.488.117-.722a.314.314 0 01.078-.136c.039-.04.078-.078.136-.117.04-.04.117-.06.195-.079a.702.702 0 01.215-.039h.079a.38.38 0 01.155.02c.059 0 .098.02.137.058.039.02.058.059.078.078 0 .04.02.079 0 .117-.04.254-.078.469-.117.722-.04.234-.078.469-.098.703l-.058.721c-.02.254-.02.488-.04.722 0 .059-.019.098-.038.156a.331.331 0 01-.117.117.365.365 0 01-.196.098.416.416 0 01-.234.059c0 .02-.02.02-.02.02h-.078c-.058 0-.116 0-.194-.02l-.117-.059c-.04-.02-.059-.058-.078-.078zm2.146 5.853c0 .039-.04.097-.078.156l-.137.136c-.058.04-.136.059-.234.098-.02 0-.04.02-.059.02-.039 0-.058 0-.078.019h-.136c-.059 0-.098 0-.137-.02a.21.21 0 01-.117-.039c-.039-.02-.078-.039-.097-.058-.02-.04-.04-.059-.059-.098-.097-.273-.195-.507-.273-.78-.078-.254-.137-.507-.234-.78-.059-.254-.117-.508-.156-.78-.059-.254-.098-.508-.137-.762-.02-.058 0-.097.02-.156a.593.593 0 01.097-.136c.04-.04.098-.078.156-.117a.658.658 0 01.234-.078c.02-.02.04-.02.059-.02h.098c0-.02.02-.02.039-.02.058 0 .097.02.156.02l.117.059c.039.02.078.039.097.078a.15.15 0 01.04.097c.038.254.097.488.136.742.058.253.117.507.195.76.059.254.136.488.234.742.078.253.156.507.273.76 0 .04 0 .098-.02.157zm.02-11.667c-.04.04-.098.078-.157.117-.058.02-.117.04-.195.059-.078.02-.137.039-.215.039-.078 0-.136-.02-.214-.04-.04 0-.098-.019-.117-.058-.04-.02-.059-.058-.078-.097 0-.04 0-.078.02-.117v-.02c.097-.234.194-.449.292-.683.097-.214.215-.429.312-.663l.351-.644c.117-.234.234-.429.351-.643.04-.04.059-.079.098-.118.039-.02.097-.058.136-.078.059-.02.117-.039.196-.039.058-.02.117-.02.195-.02h.039c.078 0 .136.02.195.04.039 0 .078.039.097.058.04.04.04.078.059.098 0 .039-.02.078-.04.117-.116.215-.233.41-.35.624-.098.234-.215.43-.313.644-.097.215-.214.43-.312.644-.078.234-.195.43-.273.663 0 .04-.02.078-.078.117zm3.628 17.793c-.04.058-.059.117-.117.195a.839.839 0 01-.195.136l-.117.059c-.02 0-.059.02-.098.02-.039.019-.078.019-.117.038h-.097c-.04 0-.079 0-.118-.02-.038 0-.078 0-.117-.019-.02-.02-.058-.039-.078-.058-.039-.02-.058-.04-.078-.059l-.624-.741c-.195-.273-.37-.507-.566-.76-.156-.274-.35-.508-.507-.762-.156-.273-.332-.507-.468-.78a.368.368 0 01-.04-.156c0-.059.02-.098.06-.156a.347.347 0 01.136-.156.442.442 0 01.215-.117.148.148 0 01.078-.04c.039 0 .058-.019.097-.019.02-.02.059-.02.078-.02H63.757c.039.02.078.02.117.04.039.02.058.039.097.058.02.02.04.059.059.078.156.254.312.488.468.742.156.253.332.487.507.74.156.255.352.47.547.723.214.253.39.468.604.721.04.04.059.098.078.157 0 .02 0 .078-.02.156zm1.307-25.07a6.465 6.465 0 00-.507.547c-.156.156-.351.35-.488.546-.156.195-.332.37-.488.566-.136.195-.312.37-.448.585a.424.424 0 01-.098.078c-.039.02-.078.058-.136.058-.04.02-.098.04-.137.059h-.352a.282.282 0 01-.136-.039c-.039-.02-.078-.059-.097-.078-.02-.04-.02-.078-.02-.117 0-.02.02-.059.059-.098.136-.214.312-.39.468-.585.156-.215.332-.39.488-.585.195-.195.35-.37.546-.566.156-.195.351-.37.546-.546.02-.04.059-.059.098-.078a.317.317 0 01.117-.059c.039 0 .078-.02.117-.02.058-.019.097-.019.136-.019h.118c.019.02.019.02.038.02.059 0 .098.02.137.058.02.02.039.04.058.078.02.02.02.059 0 .098.04.039.02.058-.019.097zm5.014 30.2a.42.42 0 01.039.196c0 .058-.02.117-.04.214a3.967 3.967 0 01-.136.195c-.039.04-.078.059-.136.098-.04.02-.078.039-.137.059a.362.362 0 01-.136.038c-.059.02-.098.02-.156.02h-.098c-.02 0-.059-.02-.078-.02-.02 0-.059-.019-.078-.019-.04-.02-.059-.04-.078-.04-.332-.214-.644-.428-.956-.643-.312-.234-.605-.43-.917-.663-.293-.234-.585-.449-.878-.683-.273-.234-.566-.449-.82-.683-.038-.058-.077-.097-.097-.156-.02-.058-.02-.117-.02-.215.02-.058.04-.116.079-.195.058-.058.097-.117.195-.156.039-.039.078-.058.117-.078a.278.278 0 01.117-.039c.039-.02.078-.039.136-.039h.215c.04 0 .078.02.098.02.039.02.078.02.097.039.02.02.059.039.078.058.273.234.546.43.8.664.273.214.566.429.839.643.273.215.585.43.878.644.312.215.624.39.936.605.059.02.098.078.137.137zm-1.6-33.809c.215-.136.43-.293.663-.43.02-.019.059-.038.078-.058.04 0 .078-.02.098-.02.039-.019.078-.019.098-.019.039 0 .078-.02.117-.02.02 0 .039 0 .058.02h.059c.02 0 .039 0 .058.02.02 0 .02 0 .04.02.038 0 .077.038.097.058.02.02.039.058.039.078 0 .039-.02.078-.04.098-.019.038-.038.058-.097.097-.214.117-.41.273-.644.41-.214.136-.41.292-.624.429-.215.156-.41.312-.624.449-.215.156-.41.312-.605.468-.039.02-.058.039-.097.058-.04.02-.059.02-.098.04-.04 0-.078.019-.117.019-.04 0-.078.02-.117.02h-.059c-.02-.02-.039-.02-.058-.02h-.04c-.019 0-.038-.02-.038-.02a.317.317 0 01-.117-.058c-.02-.02-.04-.059-.059-.078 0-.04 0-.078.02-.098a.235.235 0 01.097-.097c.195-.156.39-.332.624-.468.215-.157.41-.313.625-.469.234-.136.449-.292.663-.429zm46.842-3.121c-.02 0-.039.02-.059.02-.019.019-.039.019-.078.038h-.058c-.039 0-.059.02-.098.02-.019 0-.039 0-.058-.02h-.078c-.02 0-.059-.02-.079-.02-.019 0-.039-.019-.058-.019-.254-.097-.488-.214-.741-.312-.254-.098-.488-.215-.742-.293-.253-.097-.487-.195-.761-.292a11.225 11.225 0 01-.741-.254.32.32 0 01-.137-.078c-.019-.02-.058-.039-.058-.058-.02-.04-.02-.059-.02-.098 0-.02.02-.039.039-.078.02 0 .039-.02.059-.039.02 0 .059-.02.078-.02.02-.02.059-.02.078-.02h.215c.019 0 .039 0 .058.02.02 0 .039 0 .059.02.273.078.507.156.78.273.254.078.507.195.761.273.273.098.507.215.761.312.273.098.507.215.761.313l.117.058c.019.04.039.059.058.098.02.02.02.039 0 .078 0 .02-.019.058-.058.078zm5.696 2.906c-.039.04-.058.06-.097.079-.02 0-.039 0-.059.02h-.058c-.02.019-.039.019-.059.019h-.156c-.039-.02-.078-.02-.097-.02-.039-.02-.078-.02-.098-.039-.039-.02-.058-.02-.097-.039-.215-.136-.43-.293-.644-.41-.234-.136-.449-.273-.683-.39-.234-.136-.449-.273-.683-.39-.234-.117-.449-.254-.683-.37-.039-.02-.078-.06-.117-.079a.152.152 0 01-.039-.078c0-.039 0-.058.02-.097a.262.262 0 01.078-.059c.019-.02.039-.02.058-.039.02 0 .039 0 .059-.02h.234c.019 0 .058 0 .078.02.019 0 .059 0 .078.02.039 0 .059.02.078.039.254.117.468.253.722.37.234.117.449.254.683.39.253.118.468.274.702.41.234.117.449.273.663.41.059.02.078.058.098.078.039.039.039.059.039.098 0 .019 0 .058-.02.078zm8.858 10.809c0-.04.039-.078.058-.098a.313.313 0 01.137-.078c.058-.02.117-.02.195-.02.058 0 .136 0 .214.02.078.02.137.04.215.078.039.02.098.059.137.098.039.039.058.078.078.117l.019.039c.098.234.195.448.273.683.078.253.156.468.234.702.078.253.137.468.215.722.058.234.117.468.195.702 0 .059 0 .098-.019.117 0 .04-.04.078-.059.098a.177.177 0 01-.137.058c-.058.02-.097.04-.195.04l-.058-.02c-.078 0-.137-.02-.234-.04a1.335 1.335 0 01-.195-.077c-.039-.04-.098-.078-.117-.117a.31.31 0 01-.078-.137c-.04-.234-.098-.449-.157-.683a9.208 9.208 0 00-.195-.702 4.596 4.596 0 00-.234-.683c-.078-.215-.156-.43-.253-.663l-.02-.04c-.019-.019-.058-.058-.019-.116zm-7.121-9.014c-.039-.039-.059-.078-.078-.097-.02-.04-.02-.078-.02-.098 0-.039.02-.058.059-.078.019-.039.058-.058.097-.078h.059c0-.02.019-.02.039-.02H125.581c.039.02.078.02.117.04.039 0 .078.02.098.039.039.02.078.039.098.058.214.137.409.312.624.468.195.157.39.332.585.508.215.156.39.331.585.507.195.156.371.351.566.507.039.04.059.078.078.098v.097c-.019.04-.039.059-.078.098-.019.02-.078.039-.117.058H127.844c-.058-.02-.097-.02-.136-.039l-.117-.058c-.039-.02-.059-.04-.098-.059-.156-.195-.351-.35-.546-.507-.195-.156-.371-.351-.566-.507-.195-.156-.37-.332-.585-.468-.195-.156-.371-.313-.585-.469zm4.799 27.352c-.215.254-.41.488-.644.742-.234.253-.449.487-.702.721-.234.254-.468.488-.722.722-.254.254-.507.469-.78.722-.02.02-.039.04-.078.04a.151.151 0 01-.078.038c-.039.02-.078.02-.098.02-.039.02-.078.02-.117.02-.039 0-.078 0-.117-.02-.059 0-.098-.02-.137-.02l-.117-.058-.117-.059a.495.495 0 01-.156-.195.252.252 0 01-.078-.195.34.34 0 010-.195.432.432 0 01.098-.156c.273-.234.507-.449.761-.683.253-.234.487-.449.721-.683.234-.253.449-.468.683-.702.215-.254.41-.468.624-.722.02-.02.059-.039.079-.058.039-.02.058-.04.097-.06.039 0 .059-.019.098-.019.039 0 .078-.02.117-.02.039 0 .078.02.117.02.039 0 .058 0 .097.02.039 0 .078.02.117.039.02 0 .059.02.098.039.078.039.136.098.195.156.059.04.098.098.117.156.02.059.02.117.02.195a.368.368 0 01-.098.195zm.293-22.006c-.117-.195-.273-.39-.41-.585-.137-.215-.293-.39-.449-.586-.019-.039-.039-.078-.039-.117 0-.039 0-.058.02-.097a.408.408 0 01.097-.078c.039-.02.078-.04.137-.04 0 0 .019 0 .019-.019h.098a.33.33 0 01.136.02c.059.02.118.02.157.039.039.02.097.039.136.078.02.02.059.039.078.078.156.195.312.39.468.605.137.195.293.39.43.604.136.215.292.41.409.625.137.214.273.429.39.643a.27.27 0 01.039.117c0 .04-.019.059-.039.098-.039.02-.058.059-.117.078-.039.02-.097.02-.156.04h-.058c-.059 0-.117-.02-.195-.02-.059-.02-.117-.04-.195-.059-.039-.02-.098-.059-.137-.078a.398.398 0 01-.078-.117c-.117-.215-.254-.39-.39-.605a4.014 4.014 0 00-.351-.624zm3.336 15.841c-.098.273-.215.508-.312.78-.098.254-.235.508-.352.781-.097.254-.253.507-.37.78-.137.254-.293.508-.429.761a.152.152 0 01-.079.078c-.019.04-.058.059-.078.059-.039.02-.078.039-.117.039-.039.02-.097.02-.136.02h-.078c-.039-.02-.059-.02-.098-.02-.019 0-.058-.02-.078-.02-.039-.02-.058-.02-.097-.039-.078-.039-.137-.078-.215-.117-.058-.058-.097-.117-.137-.156-.019-.058-.039-.117-.039-.195 0-.058 0-.097.039-.156.137-.254.293-.488.41-.741.137-.254.273-.488.39-.742.117-.253.234-.507.332-.76a11.7 11.7 0 00.312-.742c.02-.039.039-.078.059-.097a.407.407 0 01.097-.059l.117-.058h.273c.02.02.039.02.078.02.02 0 .039.019.059.019.078.02.156.058.234.097.059.04.098.098.137.137.039.058.078.097.078.156a.276.276 0 010 .175zm.975-4.682l-.058.761c-.02.273-.059.507-.098.78 0 .04-.019.059-.039.098a.408.408 0 01-.097.078.281.281 0 01-.118.039c-.058.02-.097.02-.156.02h-.058-.039c-.02 0-.039 0-.059-.02h-.039a1.1 1.1 0 01-.234-.078c-.058-.04-.117-.078-.156-.117a.343.343 0 01-.097-.156.353.353 0 01-.039-.137c.058-.253.078-.488.117-.741l.058-.741c.02-.254.039-.488.039-.742v-.741c0-.04 0-.078.02-.098a.231.231 0 01.097-.097l.117-.059c.059 0 .117-.02.195-.02h.02c.019 0 .019.02.039.02H134.087c.078.02.137.04.235.059.058.02.117.058.195.097a.85.85 0 01.117.137c.019.039.039.078.039.136 0 .254.019.488 0 .761-.039.254-.039.488-.059.761z" fill="url(#paint0_linear)"/><defs><linearGradient id="paint0_linear" x1="117.408" y1="6.795" x2="73.472" y2="82.895" gradientUnits="userSpaceOnUse"><stop offset=".215" stop-color="#D22C1F"/><stop offset=".252" stop-color="#C93026"/><stop offset=".313" stop-color="#B13A3A"/><stop offset=".39" stop-color="#894A5A"/><stop offset=".424" stop-color="#75526A"/><stop offset=".486" stop-color="#546082"/><stop offset=".567" stop-color="#30709D"/><stop offset=".609" stop-color="#2276A7"/></linearGradient></defs></svg>