<svg width="21" height="23" fill="none" xmlns="http://www.w3.org/2000/svg"><path fill-rule="evenodd" clip-rule="evenodd" d="M16.785 8.329c.938-1.418 1.686-3.17 1.686-3.17s-4.094-2.004-5.73-2.877c-.726 2.543-2.162 4.158-3.526 5.737l-1.924.004C8.91 6.13 10.828 4.261 12.03 0c0 0 6.1 3.288 8.244 4.487-.246 1.485-1.342 3.482-2.404 4.778l-1.085-.936zM7.308 2.332c.068 2.208-.616 4-1.394 5.694l-1.565.004C5.228 6.139 6.03 3.94 5.915.537l4.267.536-.448 1.512s-2.228-.216-2.426-.253zm-5.22 2.262c.305 1.22.344 2.355.25 3.44l-1.485.003C.957 6.621.867 5.004.368 3.039L4.475 2.7l-.2 1.573s-1.986.315-2.188.321zm8.944 11.621c0-.17-.004-.73-.004-.993 0-.876.562-1.53 1.455-1.541 2.724-.038 5.772.016 5.772.016l.084 4.35s-3.263.197-5.514.197c-1.278 0-1.793-.754-1.793-2.029zm6.359-4.662c0 .175-.002.423-.006.726-1.414.046-3.413.103-5.426.13-1.218.017-2.234 1.156-2.234 2.352 0 .359.005 1.494.005 1.727 0 1.74 1.051 2.966 2.795 2.966 1.578 0 3.365.019 4.734.036-.013.73-.02 1.285-.02 1.523 0 1.03-.662 1.799-1.712 1.813C12.324 22.87.185 23 .185 23L0 9.396s12.635-.228 15.282-.228c1.503 0 2.109.887 2.109 2.386z" fill="#AAB9C6"/></svg>