<svg width="18" height="14" fill="none" xmlns="http://www.w3.org/2000/svg"><path fill-rule="evenodd" clip-rule="evenodd" d="M6.675 0h4.65c.32 0 .738.194.934.433l1.278 1.758a.687.687 0 00.555.276h2.748c.641 0 1.16.488 1.16 1.093v8.593c0 .604-.519 1.094-1.16 1.094H1.16c-.64 0-1.16-.489-1.16-1.094V3.56c0-.604.52-1.093 1.16-1.093h2.76c.215 0 .415-.1.537-.266L5.74.433C5.937.194 6.358 0 6.675 0zm6.68 3.836c0 .302.26.547.58.547.322 0 .581-.245.581-.547 0-.303-.259-.548-.58-.548-.32 0-.58.245-.58.548zm-8.631 3.76c0 2.228 1.914 4.034 4.276 4.034s4.276-1.806 4.276-4.034c0-2.229-1.914-4.035-4.276-4.035S4.724 5.367 4.724 7.596zM1.742.548h1.162c.32 0 .58.244.58.548v.548H1.16v-.548c0-.302.258-.548.58-.548zm3.76 7.05c0-1.824 1.566-3.3 3.498-3.3 1.933 0 3.498 1.476 3.498 3.3 0 1.823-1.565 3.3-3.498 3.3-1.932 0-3.498-1.477-3.498-3.3z" fill="#0661B2"/></svg>