<svg width="27" height="22" fill="none" xmlns="http://www.w3.org/2000/svg"><path d="M26.052 7.554c-.57-1.027-1.385-1.916-2.345-2.669a13.13 13.13 0 00-3.04-1.75 17.159 17.159 0 00-3.395-1.017c-.07-.016-.143-.027-.213-.037.202.842.438 1.91.702 3.254.417.24.788.523 1.089.836.4.405.685.873.828 1.385.142.539.11 1.072-.09 1.581-.18.479-.502.928-.953 1.33.18 1.203.344 2.387.491 3.51.06-.026.121-.057.18-.09.095-.043.186-.092.275-.14.094-.046.18-.101.269-.148.083-.047.169-.102.252-.155.006 0 .011-.005.022-.01.005 0 .01-.005.021-.005.006 0 .017-.005.022-.005h.027c.01 0 .027 0 .037.005.016 0 .027.005.043.01.011.005.027.01.038.016.01.01.022.016.032.026.016.016.033.031.038.047.01.021.016.037.016.052a.121.121 0 01-.01.047.142.142 0 01-.038.042l-.264.16-.274.154c-.094.047-.186.102-.285.149-.094.047-.19.097-.29.138-.006.006-.011.006-.022.01-.005 0-.01 0-.016.006H19.161c.197 1.54.355 2.972.487 4.208.36-.123.723-.256 1.067-.405 1.955-.826 3.49-1.955 4.54-3.244.971-1.186 1.506-2.485 1.6-3.792.095-1.184-.18-2.37-.803-3.5zM10.669.147s-.788 1.822-1.938 8.551c-1.15 6.73-1.61 12.684-1.61 12.684s1.16.277 2.739.447a33.8 33.8 0 003.156.17c.005-.314.005-.628.005-.95 0-.03.011-.057.022-.09a.258.258 0 01.048-.076.336.336 0 01.078-.053.264.264 0 01.094-.015.31.31 0 01.094.015.345.345 0 01.07.053c.022.02.038.047.049.075a.184.184 0 01.021.092c0 .319.006.632.006.948 0 0 1.067.032 3.03-.19 1.96-.217 2.862-.426 2.862-.426s-.492-5.928-1.61-12.684C16.667 1.938 15.852.147 15.852.147c-1.008-.196-4.175-.196-5.183 0zm2.476.431c0-.005.005-.01.01-.02.006-.006.012-.016.022-.022a.088.088 0 01.038-.02c.01-.006.027-.006.043-.006.016 0 .027 0 .043.006.01.005.027.01.032.02.011.006.022.016.027.021.006.01.006.016.006.021 0 .134 0 .262.005.395 0 .005-.005.01-.01.016-.006 0-.012.005-.022.005h-.162c-.01 0-.021-.005-.027-.005-.005-.006-.005-.01-.005-.016V.578zm-.005.805c0-.005.005-.015.01-.02.006-.011.011-.022.022-.027.01-.01.027-.016.038-.02.016-.006.032-.011.048-.011s.032.005.043.01c.016.005.027.01.038.021.01.005.016.016.021.026a.04.04 0 01.01.021c0 .144 0 .288.006.431 0 .01-.005.016-.01.016-.006.005-.017.005-.027.01h-.167c-.01-.005-.022-.005-.027-.01-.005 0-.005-.005-.005-.016v-.43zm-.006.884c0-.006.006-.016.011-.027l.027-.026a.087.087 0 01.038-.02.11.11 0 01.048-.011.16.16 0 01.048.01c.011.006.027.01.038.021.01.01.016.021.022.026.005.01.01.021.01.027v.478c.006.005 0 .016-.005.016a.042.042 0 01-.027.01h-.177c-.011 0-.017-.005-.027-.01-.006 0-.006-.01-.006-.016v-.478zm-.005.98c0-.006.005-.016.01-.027.006-.01.017-.02.028-.03.01-.011.021-.022.037-.027.016-.005.032-.005.054-.005.016 0 .032 0 .048.005.017.005.027.016.043.026.011.01.017.021.022.031.005.01.01.021.01.027 0 .175 0 .35.006.533a.04.04 0 01-.01.02c-.006 0-.017.006-.028.006-.01.005-.027.005-.043.005H13.204c-.016 0-.032 0-.043-.005-.01 0-.016-.005-.027-.005-.005-.006-.005-.016-.005-.021v-.533zm-.005 1.09c0-.011.005-.021.01-.032a.094.094 0 01.027-.036c.01-.011.027-.016.043-.027.016-.005.032-.01.054-.01.016 0 .038.005.054.01.016.01.027.016.037.027a.06.06 0 01.027.036c.011.01.011.021.011.031 0 .196.005.395.005.591 0 .01-.005.016-.01.021a.042.042 0 01-.027.01c-.011.006-.027.006-.043.006H13.198c-.015 0-.026 0-.042-.006-.011 0-.016-.005-.027-.01-.005-.005-.005-.01-.005-.02v-.592zm-.006 1.22c0-.01.005-.026.01-.037a.094.094 0 01.028-.036c.01-.01.027-.021.043-.032a.198.198 0 01.059-.01c.016 0 .038.005.054.01a.29.29 0 01.043.032c.016.01.021.02.032.036.005.01.005.027.005.037.006.22.006.442.006.666 0 .01 0 .016-.011.027a.042.042 0 01-.027.01c-.01.005-.027.005-.048.005-.016.005-.032.005-.054.005s-.043 0-.06-.005c-.015 0-.031 0-.048-.005a.042.042 0 01-.027-.01c-.005-.01-.01-.016-.01-.027 0-.224.005-.447.005-.666zm-.01 1.37c0-.011.005-.021.01-.037.01-.016.022-.026.032-.042.011-.01.027-.02.049-.026a.11.11 0 01.059-.016c.022 0 .038.005.06.016a.117.117 0 01.042.026c.016.016.027.026.032.042.006.016.011.026.011.036 0 .257 0 .507.005.756 0 .015-.005.02-.01.031-.011.005-.016.016-.032.016-.011.005-.027.005-.049.01h-.124c-.016-.005-.032-.005-.048-.01-.01 0-.021-.01-.027-.016-.01-.01-.01-.016-.01-.031v-.756zm-.006 1.56c0-.01.005-.026.01-.042a.124.124 0 01.033-.047c.01-.01.027-.021.048-.032.022-.01.038-.01.065-.01.022 0 .043 0 .06.01.02.01.037.021.053.032.01.016.021.031.027.047.01.016.016.031.016.042v.862c0 .016 0 .026-.01.037-.006.01-.017.015-.033.02a.132.132 0 01-.049.011c-.021 0-.042.005-.064.005-.027 0-.048-.005-.065-.005a.162.162 0 01-.053-.01c-.017-.006-.027-.01-.033-.021a.074.074 0 01-.01-.037c0-.287.005-.575.005-.862zm-.01 1.787c0-.015.005-.036.01-.052l.032-.047a.123.123 0 01.054-.037.153.153 0 01.134 0c.022.006.038.021.054.037a.123.123 0 01.033.047c.01.016.01.037.01.052.006.33.006.662.006.99 0 .017 0 .032-.011.043-.005.015-.016.02-.032.031-.016.005-.033.01-.054.01-.022.006-.048.006-.07.006-.027 0-.048 0-.07-.005a.139.139 0 01-.054-.011c-.016-.01-.027-.016-.037-.031a.096.096 0 01-.011-.042c0-.33.005-.659.005-.99zm-.011 2.062c0-.015.005-.036.01-.057.011-.016.022-.037.038-.052a.208.208 0 01.054-.042.179.179 0 01.148 0c.021.01.043.026.053.042a.159.159 0 01.038.052c.01.02.016.042.016.057 0 .39 0 .771.005 1.16 0 .022-.005.037-.016.053a.09.09 0 01-.032.031c-.016.01-.038.016-.06.021-.026.005-.048.005-.077.005-.027 0-.054 0-.078-.005a.194.194 0 01-.06-.02c-.015-.011-.031-.021-.037-.032a.087.087 0 01-.016-.052c.008-.39.008-.774.014-1.16zm-.017 2.418c0-.021.006-.047.017-.068a.135.135 0 01.037-.058.166.166 0 01.06-.047.224.224 0 01.083-.015c.027 0 .053.005.078.015.021.01.043.027.059.047a.233.233 0 01.043.058c.005.02.01.047.01.068.006.452.006.91.011 1.364a.109.109 0 01-.016.063.115.115 0 01-.037.047c-.022.01-.043.02-.065.026-.027.005-.054.01-.083.01a.381.381 0 01-.084-.01.182.182 0 01-.064-.026.125.125 0 01-.043-.047c-.011-.016-.011-.037-.011-.063 0-.455.005-.912.005-1.364zm-.016 2.859c0-.026.006-.052.016-.081.011-.02.022-.047.043-.063a.214.214 0 01.065-.052.248.248 0 01.172 0 .345.345 0 01.07.052.265.265 0 01.043.063c.01.026.016.052.016.081 0 .544.005 1.093.01 1.641a.182.182 0 01-.015.076.143.143 0 01-.049.063c-.021.015-.043.031-.07.036a.282.282 0 01-.183 0 .178.178 0 01-.07-.036.188.188 0 01-.042-.063.167.167 0 01-.017-.076c0-.551.006-1.097.011-1.641zM3.171 4.885c-.965.75-1.774 1.642-2.344 2.669-.629 1.129-.903 2.315-.809 3.504.253 3.434 3.753 6.299 6.842 7.438.242-2.284.543-5.004 1.019-8.028-1.38-1.534-.713-4.02.898-5.133.142-.714.225-1.108.349-1.678a.812.812 0 00-.137.042h-.016c-.006 0-.011 0-.016.005H8.94c-.006 0-.017 0-.027-.005-.006 0-.016 0-.022-.005-.005 0-.016 0-.021-.006-.006-.005-.011-.005-.016-.01a.04.04 0 01-.011-.021c0-.005 0-.016.005-.021a.041.041 0 01.022-.02.089.089 0 01.032-.017c.07-.026.137-.047.207-.068.016-.005.027-.005.043-.01.11-.512.231-1.032.328-1.437-1.145.23-2.256.627-3.27 1.053a13.03 13.03 0 00-3.04 1.748zm4.108-.611a.116.116 0 01.027-.021c.065-.032.126-.063.19-.097.065-.026.133-.057.192-.091.064-.026.132-.058.196-.087.065-.026.132-.057.196-.086.011 0 .016-.005.022-.005.005 0 .01-.005.021-.005h.016c.011-.006.017-.006.022-.006.005 0 .016 0 .021.006h.022c.005.005.016.005.021.005.006.005.011.005.017.01.005.006.01.016.016.021v.021c-.006.01-.011.016-.016.021a.113.113 0 01-.033.021c-.064.026-.131.052-.19.086-.065.026-.132.053-.191.087-.065.026-.127.057-.191.086l-.186.096c-.005 0-.01.006-.016.006-.01.005-.016.005-.027.01h-.021c-.011.005-.016.005-.027.005-.006 0-.01 0-.016-.005h-.022c-.005 0-.01-.005-.016-.005-.005 0-.01-.005-.016-.005-.01-.006-.016-.016-.022-.021-.005-.005-.005-.016-.005-.021.005-.01.005-.016.016-.026zM3.61 9.083a.073.073 0 01-.01-.032c.005-.063.01-.128.01-.19.006-.063.017-.129.022-.191.01-.063.016-.128.032-.191l.033-.186a.084.084 0 01.021-.036c.01-.01.022-.021.038-.032.01-.01.032-.015.048-.02a.196.196 0 01.054-.011h.021c.017 0 .033 0 .043.005a.05.05 0 01.038.016c.01.005.016.016.022.02 0 .011.005.022 0 .032l-.033.186c-.01.057-.021.123-.027.18-.005.063-.01.128-.016.186-.005.062-.005.128-.01.185 0 .016-.006.026-.011.042a.09.09 0 01-.032.031.105.105 0 01-.049.026.11.11 0 01-.059.016c0 .005-.005.005-.005.005H3.712c-.016 0-.032 0-.049-.005l-.032-.016c-.01-.005-.016-.015-.021-.02zm.57 1.505c0 .01-.01.026-.021.042l-.038.036c-.016.01-.037.016-.059.027-.005 0-.01.005-.016.005-.01 0-.016 0-.021.005h-.038c-.016 0-.027 0-.038-.005a.059.059 0 01-.032-.01c-.01-.006-.021-.011-.027-.016l-.016-.027a2.982 2.982 0 01-.07-.2c-.021-.063-.037-.134-.059-.202a2.23 2.23 0 01-.043-.201c-.016-.063-.027-.134-.038-.196-.005-.016 0-.026.006-.042a.16.16 0 01.027-.037c.01-.01.027-.02.043-.031.016-.01.037-.016.059-.021.005-.005.01-.005.016-.005H3.84c0-.005.005-.005.01-.005.017 0 .027.005.044.005l.032.015c.01.006.021.01.027.021a.04.04 0 01.01.027c.011.062.027.128.038.19.016.063.032.134.049.196.016.063.037.128.059.191.021.063.043.133.07.196.005.01.005.026 0 .042zm.006-3.003a.299.299 0 01-.043.031l-.048.016c-.022.005-.038.01-.054.01a.163.163 0 01-.054-.01c-.01 0-.027-.005-.032-.016-.011-.005-.016-.015-.022-.026 0-.01 0-.02.006-.031v-.005c.026-.058.048-.118.078-.175.026-.053.053-.113.083-.17.032-.053.059-.113.094-.165.032-.057.06-.112.094-.165.01-.01.016-.02.027-.031.01-.005.027-.016.038-.02a.16.16 0 01.048-.011c.016-.006.032-.006.048-.006h.011a.11.11 0 01.049.01c.01 0 .021.011.026.017.011.01.011.02.017.026 0 .01-.006.02-.011.031-.032.052-.06.107-.094.16a2.384 2.384 0 01-.084.164c-.027.052-.053.113-.083.165-.021.057-.048.112-.07.17-.008.01-.013.02-.024.031zm.96 4.581c-.011.016-.016.032-.033.047a.369.369 0 01-.048.037 4.55 4.55 0 01-.032.016c-.006 0-.016.005-.027.005-.01.005-.022.005-.032.01h-.027c-.011 0-.022 0-.033-.005-.01 0-.021 0-.032-.005-.005-.005-.016-.01-.021-.016a.076.076 0 01-.022-.015l-.164-.191c-.048-.068-.1-.133-.148-.196-.043-.068-.094-.133-.137-.196-.043-.068-.088-.133-.126-.201a.096.096 0 01-.01-.042c0-.016.005-.026.015-.042a.093.093 0 01.038-.042.13.13 0 01.054-.031.041.041 0 01.021-.01c.01 0 .016-.006.027-.006.005-.005.016-.005.022-.005h.059c.01.005.021.005.032.01l.027.016c.005.005.01.016.016.02.043.064.083.129.126.192s.089.128.137.19c.043.063.095.123.143.186l.159.186c.01.01.016.026.021.042 0 .013 0 .028-.005.046zm.344-6.455c-.049.047-.094.092-.137.139a1.626 1.626 0 00-.132.138l-.132.144c-.037.047-.083.097-.12.149a.117.117 0 01-.028.02c-.01.006-.021.016-.037.016-.011.006-.027.01-.038.016H4.79a.08.08 0 01-.038-.01.117.117 0 01-.027-.021c-.005-.01-.005-.021-.005-.032 0-.005.005-.015.016-.026.038-.052.083-.102.126-.149.043-.052.09-.102.132-.149.049-.047.094-.096.143-.143.043-.047.094-.097.142-.139.005-.01.016-.016.027-.02a.088.088 0 01.032-.016c.011 0 .022-.006.032-.006.017-.005.027-.005.038-.005h.032c.006.005.006.005.011.005a.05.05 0 01.038.016c.005.005.01.01.016.02.005.006.005.017 0 .027 0 .01-.005.016-.016.026zm1.33 7.78c.006.011.011.027.011.048 0 .015-.005.03-.01.052-.011.016-.022.031-.038.047-.01.01-.022.016-.038.026a.254.254 0 01-.037.016.103.103 0 01-.038.01c-.016.005-.027.005-.043.005h-.027c-.005 0-.016-.005-.021-.005-.006 0-.017-.005-.022-.005-.01-.005-.016-.01-.021-.01-.09-.053-.17-.113-.253-.165l-.242-.17c-.078-.057-.153-.118-.231-.175-.07-.058-.148-.118-.218-.175-.01-.016-.022-.026-.027-.042-.005-.016-.005-.031-.005-.052.005-.016.01-.032.021-.047.016-.016.027-.032.049-.042a.111.111 0 01.032-.021c.01-.005.021-.01.032-.01.01-.006.022-.011.038-.011h.059c.01 0 .021.005.027.005.01.005.021.005.027.01.005.006.016.011.021.016.07.058.143.113.212.17.07.053.148.113.226.165.07.052.154.112.232.165l.247.154c.016.01.027.026.037.042zm-.422-8.71c.054-.037.116-.076.175-.113l.022-.015c.01 0 .021-.006.027-.006.01-.005.021-.005.026-.005.011 0 .022-.005.033-.005.005 0 .01 0 .016.005h.016c.005 0 .01 0 .016.005.005 0 .005 0 .01.006.012 0 .022.01.028.015a.04.04 0 01.01.021.04.04 0 01-.01.026c-.006.01-.011.016-.027.027a3.56 3.56 0 00-.17.107l-.164.112a3.2 3.2 0 01-.164.118c-.053.042-.11.08-.158.123l-.027.015c-.01.005-.016.005-.027.01-.01 0-.021.006-.032.006-.01 0-.022.005-.032.005h-.017c-.005-.005-.01-.005-.016-.005h-.01c-.006 0-.011-.005-.011-.005a.088.088 0 01-.032-.016c-.006-.005-.011-.016-.017-.02 0-.011 0-.022.006-.027a1.318 1.318 0 01.19-.149c.054-.042.11-.081.165-.123.059-.04.115-.076.174-.112zm12.407-.805c-.005 0-.01.005-.016.005-.006.005-.011.005-.022.01h-.016c-.01 0-.016.006-.027.006-.005 0-.01 0-.016-.006h-.021c-.006 0-.017-.005-.022-.005-.005 0-.01-.005-.016-.005-.064-.026-.132-.052-.196-.081a6.13 6.13 0 00-.197-.076c-.064-.026-.131-.047-.201-.076l-.196-.062a.088.088 0 01-.038-.021c-.005-.005-.016-.01-.016-.016-.005-.01-.005-.016-.005-.026 0-.005.005-.01.01-.02.006 0 .011-.006.016-.011.006 0 .017-.006.022-.006.005-.005.016-.005.021-.005h.059c.006 0 .011 0 .017.005.005 0 .01 0 .016.006.07.02.137.041.207.068.064.02.137.047.201.067.07.027.138.053.202.082.07.026.137.052.202.08l.032.016.016.026c.005.006.005.01 0 .021a.028.028 0 01-.016.024zm1.51.75c-.01.01-.015.016-.026.02-.006 0-.01 0-.016.006h-.016c-.006.005-.011.005-.017.005H20.197c-.011-.005-.022-.005-.027-.005-.011-.005-.022-.005-.027-.01-.011-.006-.016-.006-.027-.01a3.034 3.034 0 00-.17-.108c-.059-.037-.12-.068-.18-.102-.059-.037-.12-.068-.18-.102-.059-.031-.12-.063-.18-.097-.01-.005-.021-.015-.032-.02a.04.04 0 01-.01-.021c0-.01 0-.016.005-.027a.072.072 0 01.021-.015c.005-.005.01-.005.016-.01.006 0 .01 0 .016-.006h.065c.005 0 .016 0 .021.005.006 0 .016 0 .022.006a6.527 6.527 0 01.212.107c.06.031.121.062.18.102.065.031.127.068.186.107.059.031.12.068.174.107.017.005.022.016.027.02.011.011.011.016.011.027 0 .005 0 .016-.005.02zm2.345 2.786c0-.01.01-.021.016-.026a.087.087 0 01.038-.021c.016-.005.032-.005.048-.005s.038 0 .054.005c.021.005.037.01.054.02.01.006.026.016.037.027.011.01.016.02.022.031l.005.01c.027.058.049.118.07.176.022.063.043.123.06.18.02.063.037.123.053.186l.048.18c0 .016 0 .026-.005.031 0 .01-.01.021-.016.026a.05.05 0 01-.038.016c-.016.005-.027.01-.048.01l-.016-.005c-.022 0-.038-.005-.06-.01a.193.193 0 01-.048-.021c-.01-.01-.027-.02-.032-.031a.084.084 0 01-.022-.037 2.106 2.106 0 00-.043-.175l-.048-.18a2.185 2.185 0 00-.06-.175l-.064-.17-.005-.01c0-.011-.005-.022 0-.032zm-1.884-2.324c-.011-.01-.017-.02-.022-.026-.005-.01-.005-.02-.005-.026 0-.01.005-.016.016-.02.005-.011.016-.016.027-.022h.016c0-.005.005-.005.01-.005h.06c.01.005.021.005.032.01.01 0 .021.006.027.011.01.005.021.01.027.016.053.036.11.08.164.123.048.041.105.086.153.133.054.042.105.086.153.133.049.042.1.092.148.133.01.01.016.021.021.027V5.7a.09.09 0 01-.021.026c-.005.005-.022.01-.032.016h-.081c-.016-.006-.027-.006-.038-.01l-.032-.017-.027-.015a1.705 1.705 0 00-.142-.134c-.049-.041-.1-.091-.148-.133-.049-.042-.1-.086-.153-.123-.049-.042-.097-.083-.154-.123zm1.271 7.046c-.054.063-.11.129-.17.191-.059.063-.12.128-.185.186-.059.063-.126.128-.19.185-.065.063-.138.123-.208.186-.005.005-.01.01-.021.01a.041.041 0 01-.022.01c-.01.006-.021.006-.027.006-.01.005-.021.005-.032.005-.01 0-.021 0-.032-.005-.016 0-.027-.005-.038-.005l-.032-.016-.032-.015c-.022-.016-.032-.032-.043-.048a.063.063 0 01-.022-.047.07.07 0 010-.047.113.113 0 01.027-.041c.07-.058.137-.118.202-.176.064-.057.131-.117.19-.175.06-.062.122-.123.18-.18.054-.063.11-.123.165-.186.005-.005.016-.01.021-.015l.027-.016c.01 0 .016-.005.027-.005.01 0 .021-.005.032-.005s.022.005.032.005c.011 0 .017 0 .027.005.011 0 .022.005.033.01.005 0 .016.006.027.011.021.01.037.026.048.042.016.01.027.026.032.042a.143.143 0 01.005.047c0 .015-.01.031-.021.041zm.078-5.67c-.032-.048-.07-.103-.11-.15a1.66 1.66 0 00-.121-.149.073.073 0 01-.011-.031c0-.01 0-.016.005-.026.006-.006.017-.016.027-.021a.08.08 0 01.038-.01s.005 0 .005-.006h.027c.01 0 .027 0 .038.005.016.006.032.006.043.01.01.006.027.011.037.022.006.005.017.01.022.02.043.048.083.103.126.155.038.047.078.102.116.154.038.052.078.107.11.16.038.052.07.112.105.164.005.01.01.021.01.031 0 .01-.005.016-.01.027-.01.005-.016.015-.032.02-.011.006-.027.006-.043.011h-.016c-.016 0-.033-.005-.049-.005l-.048-.016c-.01-.005-.027-.016-.038-.02a.107.107 0 01-.021-.032 1.755 1.755 0 00-.105-.154c-.035-.053-.067-.105-.105-.16zm.887 4.079a6.342 6.342 0 01-.177.402c-.027.063-.065.134-.1.201l-.115.197a.041.041 0 01-.022.02c-.005.01-.016.016-.021.016a.077.077 0 01-.033.01c-.01.006-.026.006-.037.006h-.022c-.01-.005-.016-.005-.027-.005-.005 0-.016-.006-.021-.006-.01-.005-.016-.005-.027-.01-.022-.01-.038-.021-.054-.031-.016-.016-.027-.032-.038-.042-.005-.016-.01-.032-.01-.047 0-.016 0-.026.01-.042.038-.063.078-.128.11-.19.038-.064.07-.129.106-.192.032-.062.059-.133.088-.196.033-.062.054-.128.084-.19a.11.11 0 01.016-.027.114.114 0 01.027-.015l.032-.016h.075c.006.005.011.005.022.005.005 0 .01.005.016.005a.2.2 0 01.059.027c.016.01.027.026.038.036.01.016.021.026.021.042a.056.056 0 010 .042zm.258-1.205l-.016.196c-.005.068-.016.133-.027.201 0 .01-.005.016-.01.026a.114.114 0 01-.027.021.078.078 0 01-.033.01c-.016.006-.027.006-.043.006h-.016-.01c-.006 0-.011 0-.017-.005h-.01c-.022-.005-.043-.01-.06-.021a.29.29 0 01-.043-.032.092.092 0 01-.027-.041.095.095 0 01-.01-.037c.016-.063.021-.128.032-.19l.016-.191c.006-.063.01-.129.01-.191v-.191c0-.01 0-.021.006-.026a.064.064 0 01.027-.026l.032-.016c.017 0 .033-.005.049-.005h.005c.005 0 .005.005.01.005h.017l.06.016c.015.005.031.015.048.026.01.01.021.02.032.036.005.01.01.021.01.037 0 .063.006.128 0 .196 0 .063 0 .128-.005.196z" fill="#AAB9C6"/></svg>