<svg width="30" height="30" fill="none" xmlns="http://www.w3.org/2000/svg"><path fill-rule="evenodd" clip-rule="evenodd" d="M27.923 15c0 7.137-5.786 12.923-12.923 12.923-7.137 0-12.923-5.786-12.923-12.923C2.077 7.863 7.863 2.077 15 2.077c7.137 0 12.923 5.786 12.923 12.923zM30 15c0 8.284-6.716 15-15 15-8.284 0-15-6.716-15-15C0 6.716 6.716 0 15 0c8.284 0 15 6.716 15 15zm-19.846-1.846c1.02 0 1.846-1.24 1.846-2.77 0-1.529-.827-2.769-1.846-2.769-1.02 0-1.846 1.24-1.846 2.77 0 1.529.826 2.769 1.846 2.769zm11.538-2.77c0 1.53-.826 2.77-1.846 2.77S18 11.914 18 10.384c0-1.529.827-2.769 1.846-2.769 1.02 0 1.846 1.24 1.846 2.77zM7.615 18.347v2.077h14.77v-2.077H7.615z" fill="#EEE"/></svg>