<svg width="30" height="30" fill="none" xmlns="http://www.w3.org/2000/svg"><path fill-rule="evenodd" clip-rule="evenodd" d="M27.923 15c0 7.137-5.786 12.923-12.923 12.923-7.137 0-12.923-5.786-12.923-12.923C2.077 7.863 7.863 2.077 15 2.077c7.137 0 12.923 5.786 12.923 12.923zM30 15c0 8.284-6.716 15-15 15-8.284 0-15-6.716-15-15C0 6.716 6.716 0 15 0c8.284 0 15 6.716 15 15zm-19.846-1.846c1.02 0 1.846-1.24 1.846-2.77 0-1.529-.827-2.769-1.846-2.769-1.02 0-1.846 1.24-1.846 2.77 0 1.529.826 2.769 1.846 2.769zm11.538-2.77c0 1.53-.826 2.77-1.846 2.77S18 11.914 18 10.384c0-1.529.827-2.769 1.846-2.769 1.02 0 1.846 1.24 1.846 2.77zm-13.73 7.5l-.778.69.002.002.004.004.01.011.033.036a8.551 8.551 0 00.524.504c.356.314.874.727 1.542 1.138 1.336.822 3.297 1.654 5.759 1.654 2.461 0 4.422-.832 5.758-1.654a11.234 11.234 0 001.542-1.138 8.547 8.547 0 00.557-.54l.01-.011.004-.004.001-.002h.001l-.777-.69-.777-.688-.013.013-.07.074c-.067.067-.172.168-.312.292a9.152 9.152 0 01-1.255.925c-1.101.678-2.688 1.346-4.67 1.346-1.98 0-3.568-.668-4.669-1.346a9.153 9.153 0 01-1.255-.925 6.52 6.52 0 01-.382-.366l-.013-.014c.001.001.001.002-.776.69z" fill="#EEE"/></svg>