<svg width="30" height="30" fill="none" xmlns="http://www.w3.org/2000/svg"><path fill-rule="evenodd" clip-rule="evenodd" d="M27.923 15c0 7.137-5.786 12.923-12.923 12.923-7.137 0-12.923-5.786-12.923-12.923C2.077 7.863 7.863 2.077 15 2.077c7.137 0 12.923 5.786 12.923 12.923zM30 15c0 8.284-6.716 15-15 15-8.284 0-15-6.716-15-15C0 6.716 6.716 0 15 0c8.284 0 15 6.716 15 15zm-15 7.846c-6.646 0-7.385-7.385-7.385-7.385h14.77s-.739 7.385-7.385 7.385zm-3-12.692c0 1.53-.827 2.77-1.846 2.77-1.02 0-1.846-1.24-1.846-2.77s.826-2.77 1.846-2.77S12 8.625 12 10.155zm7.846 2.77c1.02 0 1.846-1.24 1.846-2.77s-.826-2.77-1.846-2.77S18 8.625 18 10.155s.827 2.77 1.846 2.77z" fill="#EEE"/></svg>