<svg width="25" height="23" fill="none" xmlns="http://www.w3.org/2000/svg"><path d="M24.806 13.945s-3.954-.173-5.451-1.674c-1.528-1.527-1.723-5.21-1.723-5.21l-1.106.094s.105 3.258-1.667 5.048c-1.286 1.298-5.168 1.757-5.168 1.757l-.11 1.163s3.352.278 5.226 2.17C16.68 19.186 16.597 23 16.597 23h1.087s.365-4.653 1.923-5.978c1.915-1.632 5.255-1.847 5.255-1.847l-.056-1.23zm-13.22-6.102h.535s.18-2.287.948-2.941c.944-.805 2.588-.91 2.588-.91l-.027-.603s-1.926-.109-2.663-.846C12.215 1.791 12.098 0 12.098 0l-.545.045s.086 1.622-.787 2.502c-.632.64-2.58.846-2.58.846l-.053.572s1.618.12 2.54 1.05c.921.933.913 2.828.913 2.828zm-5.83 2.63c-.9-.9-1.005-3.081-1.005-3.081l-.654.056s.105 1.942-.94 2.995c-.76.764-3.093 1.012-3.093 1.012L0 12.139s1.934.144 3.04 1.257c1.106 1.117 1.098 3.382 1.098 3.382h.64s.214-2.739 1.132-3.521c1.128-.963 3.1-1.087 3.1-1.087l-.03-.723c.003 0-2.337-.09-3.224-.974z" fill="#AAB9C6"/></svg>